<?xml version="1.0" encoding="UTF-8" standalone="no"?>
<!DOCTYPE svg PUBLIC "-//W3C//DTD SVG 1.1//EN"
 "http://www.w3.org/Graphics/SVG/1.1/DTD/svg11.dtd">
<!-- Generated by graphviz version 2.43.0 (0)
 -->
<!-- Title: G Pages: 1 -->
<svg width="1617pt" height="504pt"
 viewBox="0.00 0.00 1617.00 504.00" xmlns="http://www.w3.org/2000/svg" xmlns:xlink="http://www.w3.org/1999/xlink">
<g id="graph0" class="graph" transform="scale(1 1) rotate(0) translate(4 500)">
<title>G</title>
<polygon fill="white" stroke="transparent" points="-4,4 -4,-500 1613,-500 1613,4 -4,4"/>
<g id="clust1" class="cluster">
<title>cluster_root</title>
<g id="a_clust1"><a xlink:title="eventq_index=0&#10;full_system=false&#10;sim_quantum=0&#10;time_sync_enable=false&#10;time_sync_period=100000000000&#10;time_sync_spin_threshold=100000000">
<path fill="#bab6ae" stroke="#000000" d="M20,-8C20,-8 1589,-8 1589,-8 1595,-8 1601,-14 1601,-20 1601,-20 1601,-476 1601,-476 1601,-482 1595,-488 1589,-488 1589,-488 20,-488 20,-488 14,-488 8,-482 8,-476 8,-476 8,-20 8,-20 8,-14 14,-8 20,-8"/>
<text text-anchor="middle" x="804.5" y="-472.8" font-family="Arial" font-size="14.00" fill="#000000">root </text>
<text text-anchor="middle" x="804.5" y="-457.8" font-family="Arial" font-size="14.00" fill="#000000">: Root</text>
</a>
</g>
</g>
<g id="clust2" class="cluster">
<title>cluster_system</title>
<g id="a_clust2"><a xlink:title="auto_unlink_shared_backstore=false&#10;cache_line_size=64&#10;eventq_index=0&#10;exit_on_work_items=false&#10;init_param=0&#10;m5ops_base=0&#10;mem_mode=timing&#10;mem_ranges=0:2147483648&#10;memories=system.mem_ctrl.dram&#10;mmap_using_noreserve=false&#10;multi_thread=false&#10;&#10;um_work_ids=16&#10;&#13;eadfile=&#10;&#13;edirect_paths=&#10;shadow_rom_ranges=&#10;shared_backstore=&#10;symbolfile=&#10;thermal_components=&#10;thermal_model=Null&#10;work_begin_ckpt_count=0&#10;work_begin_cpu_id_exit=&#45;1&#10;work_begin_exit_count=0&#10;work_cpus_ckpt_count=0&#10;work_end_ckpt_count=0&#10;work_end_exit_count=0&#10;work_item_id=&#45;1&#10;workload=system.workload">
<path fill="#e4e7eb" stroke="#000000" d="M28,-16C28,-16 1581,-16 1581,-16 1587,-16 1593,-22 1593,-28 1593,-28 1593,-430 1593,-430 1593,-436 1587,-442 1581,-442 1581,-442 28,-442 28,-442 22,-442 16,-436 16,-430 16,-430 16,-28 16,-28 16,-22 22,-16 28,-16"/>
<text text-anchor="middle" x="804.5" y="-426.8" font-family="Arial" font-size="14.00" fill="#000000">system </text>
<text text-anchor="middle" x="804.5" y="-411.8" font-family="Arial" font-size="14.00" fill="#000000">: System</text>
</a>
</g>
</g>
<g id="clust12" class="cluster">
<title>cluster_system_membus</title>
<g id="a_clust12"><a xlink:title="clk_domain=system.clk_domain&#10;eventq_index=0&#10;forward_latency=1&#10;frontend_latency=1&#10;header_latency=1&#10;max_outstanding_snoops=512&#10;max_routing_table_size=512&#10;point_of_coherency=true&#10;point_of_unification=true&#10;power_model=&#10;power_state=system.membus.power_state&#10;&#13;esponse_latency=1&#10;snoop_filter=system.membus.snoop_filter&#10;snoop_response_latency=4&#10;system=system&#10;use_default_range=false&#10;width=64">
<path fill="#6f798c" stroke="#000000" d="M834,-306C834,-306 1070,-306 1070,-306 1076,-306 1082,-312 1082,-318 1082,-318 1082,-384 1082,-384 1082,-390 1076,-396 1070,-396 1070,-396 834,-396 834,-396 828,-396 822,-390 822,-384 822,-384 822,-318 822,-318 822,-312 828,-306 834,-306"/>
<text text-anchor="middle" x="952" y="-380.8" font-family="Arial" font-size="14.00" fill="#000000">membus </text>
<text text-anchor="middle" x="952" y="-365.8" font-family="Arial" font-size="14.00" fill="#000000">: SystemXBar</text>
</a>
</g>
</g>
<g id="clust15" class="cluster">
<title>cluster_system_cpu</title>
<g id="a_clust15"><a xlink:title="branchPred=Null&#10;checker=Null&#10;clk_domain=system.clk_domain&#10;cpu_id=&#45;1&#10;decoder=system.cpu.decoder&#10;do_checkpoint_insts=true&#10;do_statistics_insts=true&#10;eventq_index=0&#10;function_trace=false&#10;function_trace_start=0&#10;interrupts=system.cpu.interrupts&#10;isa=system.cpu.isa&#10;max_insts_all_threads=0&#10;max_insts_any_thread=0&#10;mmu=system.cpu.mmu&#10;&#10;umThreads=1&#10;power_gating_on_idle=false&#10;power_model=&#10;power_state=system.cpu.power_state&#10;progress_interval=0&#10;pwr_gating_latency=300&#10;simpoint_start_insts=&#10;socket_id=0&#10;switched_out=false&#10;syscallRetryLatency=10000&#10;system=system&#10;tracer=system.cpu.tracer&#10;workload=system.cpu.workload">
<path fill="#bbc6d9" stroke="#000000" d="M1074,-24C1074,-24 1573,-24 1573,-24 1579,-24 1585,-30 1585,-36 1585,-36 1585,-286 1585,-286 1585,-292 1579,-298 1573,-298 1573,-298 1074,-298 1074,-298 1068,-298 1062,-292 1062,-286 1062,-286 1062,-36 1062,-36 1062,-30 1068,-24 1074,-24"/>
<text text-anchor="middle" x="1323.5" y="-282.8" font-family="Arial" font-size="14.00" fill="#000000">cpu </text>
<text text-anchor="middle" x="1323.5" y="-267.8" font-family="Arial" font-size="14.00" fill="#000000">: X86TimingSimpleCPU</text>
</a>
</g>
</g>
<g id="clust26" class="cluster">
<title>cluster_system_cpu_icache</title>
<g id="a_clust26"><a xlink:title="addr_ranges=0:18446744073709551615&#10;assoc=2&#10;clk_domain=system.clk_domain&#10;clusivity=mostly_incl&#10;compressor=Null&#10;data_latency=2&#10;demand_mshr_reserve=1&#10;eventq_index=0&#10;is_read_only=false&#10;max_miss_count=0&#10;move_contractions=true&#10;mshrs=4&#10;power_model=&#10;power_state=system.cpu.icache.power_state&#10;prefetcher=Null&#10;&#13;eplace_expansions=true&#10;&#13;eplacement_policy=system.cpu.icache.replacement_policy&#10;&#13;esponse_latency=2&#10;sequential_access=false&#10;size=262144&#10;system=system&#10;tag_latency=2&#10;tags=system.cpu.icache.tags&#10;tgts_per_mshr=20&#10;warmup_percentage=0&#10;write_allocator=Null&#10;write_buffers=8&#10;writeback_clean=false">
<path fill="#bab6ae" stroke="#000000" d="M1276,-32C1276,-32 1438,-32 1438,-32 1444,-32 1450,-38 1450,-44 1450,-44 1450,-110 1450,-110 1450,-116 1444,-122 1438,-122 1438,-122 1276,-122 1276,-122 1270,-122 1264,-116 1264,-110 1264,-110 1264,-44 1264,-44 1264,-38 1270,-32 1276,-32"/>
<text text-anchor="middle" x="1357" y="-106.8" font-family="Arial" font-size="14.00" fill="#000000">icache </text>
<text text-anchor="middle" x="1357" y="-91.8" font-family="Arial" font-size="14.00" fill="#000000">: L1Cache</text>
</a>
</g>
</g>
<g id="clust32" class="cluster">
<title>cluster_system_cpu_dcache</title>
<g id="a_clust32"><a xlink:title="addr_ranges=0:18446744073709551615&#10;assoc=2&#10;clk_domain=system.clk_domain&#10;clusivity=mostly_incl&#10;compressor=Null&#10;data_latency=2&#10;demand_mshr_reserve=1&#10;eventq_index=0&#10;is_read_only=false&#10;max_miss_count=0&#10;move_contractions=true&#10;mshrs=4&#10;power_model=&#10;power_state=system.cpu.dcache.power_state&#10;prefetcher=Null&#10;&#13;eplace_expansions=true&#10;&#13;eplacement_policy=system.cpu.dcache.replacement_policy&#10;&#13;esponse_latency=2&#10;sequential_access=false&#10;size=262144&#10;system=system&#10;tag_latency=2&#10;tags=system.cpu.dcache.tags&#10;tgts_per_mshr=20&#10;warmup_percentage=0&#10;write_allocator=Null&#10;write_buffers=8&#10;writeback_clean=false">
<path fill="#bab6ae" stroke="#000000" d="M1082,-32C1082,-32 1244,-32 1244,-32 1250,-32 1256,-38 1256,-44 1256,-44 1256,-110 1256,-110 1256,-116 1250,-122 1244,-122 1244,-122 1082,-122 1082,-122 1076,-122 1070,-116 1070,-110 1070,-110 1070,-44 1070,-44 1070,-38 1076,-32 1082,-32"/>
<text text-anchor="middle" x="1163" y="-106.8" font-family="Arial" font-size="14.00" fill="#000000">dcache </text>
<text text-anchor="middle" x="1163" y="-91.8" font-family="Arial" font-size="14.00" fill="#000000">: L1Cache</text>
</a>
</g>
</g>
<g id="clust41" class="cluster">
<title>cluster_system_cpu_interrupts</title>
<g id="a_clust41"><a xlink:title="clk_domain=system.cpu.interrupts.clk_domain&#10;eventq_index=0&#10;int_latency=1000&#10;pio_latency=100000&#10;system=system">
<path fill="#bab6ae" stroke="#000000" d="M1288,-162C1288,-162 1565,-162 1565,-162 1571,-162 1577,-168 1577,-174 1577,-174 1577,-240 1577,-240 1577,-246 1571,-252 1565,-252 1565,-252 1288,-252 1288,-252 1282,-252 1276,-246 1276,-240 1276,-240 1276,-174 1276,-174 1276,-168 1282,-162 1288,-162"/>
<text text-anchor="middle" x="1426.5" y="-236.8" font-family="Arial" font-size="14.00" fill="#000000">interrupts </text>
<text text-anchor="middle" x="1426.5" y="-221.8" font-family="Arial" font-size="14.00" fill="#000000">: X86LocalApic</text>
</a>
</g>
</g>
<g id="clust43" class="cluster">
<title>cluster_system_l1_cache_A</title>
<g id="a_clust43"><a xlink:title="addr_ranges=0:18446744073709551615&#10;assoc=2&#10;clk_domain=system.clk_domain&#10;clusivity=mostly_incl&#10;compressor=Null&#10;data_latency=2&#10;demand_mshr_reserve=1&#10;eventq_index=0&#10;is_read_only=false&#10;max_miss_count=0&#10;move_contractions=true&#10;mshrs=4&#10;power_model=&#10;power_state=system.l1_cache_A.power_state&#10;prefetcher=Null&#10;&#13;eplace_expansions=true&#10;&#13;eplacement_policy=system.l1_cache_A.replacement_policy&#10;&#13;esponse_latency=2&#10;sequential_access=false&#10;size=262144&#10;system=system&#10;tag_latency=2&#10;tags=system.l1_cache_A.tags&#10;tgts_per_mshr=20&#10;warmup_percentage=0&#10;write_allocator=Null&#10;write_buffers=8&#10;writeback_clean=false">
<path fill="#bab6ae" stroke="#000000" d="M133,-32C133,-32 295,-32 295,-32 301,-32 307,-38 307,-44 307,-44 307,-110 307,-110 307,-116 301,-122 295,-122 295,-122 133,-122 133,-122 127,-122 121,-116 121,-110 121,-110 121,-44 121,-44 121,-38 127,-32 133,-32"/>
<text text-anchor="middle" x="214" y="-106.8" font-family="Arial" font-size="14.00" fill="#000000">l1_cache_A </text>
<text text-anchor="middle" x="214" y="-91.8" font-family="Arial" font-size="14.00" fill="#000000">: L1Cache</text>
</a>
</g>
</g>
<g id="clust49" class="cluster">
<title>cluster_system_l1_cache_B</title>
<g id="a_clust49"><a xlink:title="addr_ranges=0:18446744073709551615&#10;assoc=2&#10;clk_domain=system.clk_domain&#10;clusivity=mostly_incl&#10;compressor=Null&#10;data_latency=2&#10;demand_mshr_reserve=1&#10;eventq_index=0&#10;is_read_only=false&#10;max_miss_count=0&#10;move_contractions=true&#10;mshrs=4&#10;power_model=&#10;power_state=system.l1_cache_B.power_state&#10;prefetcher=Null&#10;&#13;eplace_expansions=true&#10;&#13;eplacement_policy=system.l1_cache_B.replacement_policy&#10;&#13;esponse_latency=2&#10;sequential_access=false&#10;size=262144&#10;system=system&#10;tag_latency=2&#10;tags=system.l1_cache_B.tags&#10;tgts_per_mshr=20&#10;warmup_percentage=0&#10;write_allocator=Null&#10;write_buffers=8&#10;writeback_clean=false">
<path fill="#bab6ae" stroke="#000000" d="M397,-32C397,-32 559,-32 559,-32 565,-32 571,-38 571,-44 571,-44 571,-110 571,-110 571,-116 565,-122 559,-122 559,-122 397,-122 397,-122 391,-122 385,-116 385,-110 385,-110 385,-44 385,-44 385,-38 391,-32 397,-32"/>
<text text-anchor="middle" x="478" y="-106.8" font-family="Arial" font-size="14.00" fill="#000000">l1_cache_B </text>
<text text-anchor="middle" x="478" y="-91.8" font-family="Arial" font-size="14.00" fill="#000000">: L1Cache</text>
</a>
</g>
</g>
<g id="clust55" class="cluster">
<title>cluster_system_l1_cache_results</title>
<g id="a_clust55"><a xlink:title="addr_ranges=0:18446744073709551615&#10;assoc=2&#10;clk_domain=system.clk_domain&#10;clusivity=mostly_incl&#10;compressor=Null&#10;data_latency=2&#10;demand_mshr_reserve=1&#10;eventq_index=0&#10;is_read_only=false&#10;max_miss_count=0&#10;move_contractions=true&#10;mshrs=4&#10;power_model=&#10;power_state=system.l1_cache_results.power_state&#10;prefetcher=Null&#10;&#13;eplace_expansions=true&#10;&#13;eplacement_policy=system.l1_cache_results.replacement_policy&#10;&#13;esponse_latency=2&#10;sequential_access=false&#10;size=262144&#10;system=system&#10;tag_latency=2&#10;tags=system.l1_cache_results.tags&#10;tgts_per_mshr=20&#10;warmup_percentage=0&#10;write_allocator=Null&#10;write_buffers=8&#10;writeback_clean=false">
<path fill="#bab6ae" stroke="#000000" d="M717,-32C717,-32 879,-32 879,-32 885,-32 891,-38 891,-44 891,-44 891,-110 891,-110 891,-116 885,-122 879,-122 879,-122 717,-122 717,-122 711,-122 705,-116 705,-110 705,-110 705,-44 705,-44 705,-38 711,-32 717,-32"/>
<text text-anchor="middle" x="798" y="-106.8" font-family="Arial" font-size="14.00" fill="#000000">l1_cache_results </text>
<text text-anchor="middle" x="798" y="-91.8" font-family="Arial" font-size="14.00" fill="#000000">: L1Cache</text>
</a>
</g>
</g>
<g id="clust61" class="cluster">
<title>cluster_system_l2_cache_A</title>
<g id="a_clust61"><a xlink:title="addr_ranges=0:18446744073709551615&#10;assoc=8&#10;clk_domain=system.clk_domain&#10;clusivity=mostly_incl&#10;compressor=Null&#10;data_latency=20&#10;demand_mshr_reserve=1&#10;eventq_index=0&#10;is_read_only=false&#10;max_miss_count=0&#10;move_contractions=true&#10;mshrs=20&#10;power_model=&#10;power_state=system.l2_cache_A.power_state&#10;prefetcher=Null&#10;&#13;eplace_expansions=true&#10;&#13;eplacement_policy=system.l2_cache_A.replacement_policy&#10;&#13;esponse_latency=20&#10;sequential_access=false&#10;size=262144&#10;system=system&#10;tag_latency=20&#10;tags=system.l2_cache_A.tags&#10;tgts_per_mshr=12&#10;warmup_percentage=0&#10;write_allocator=Null&#10;write_buffers=8&#10;writeback_clean=false">
<path fill="#bab6ae" stroke="#000000" d="M36,-162C36,-162 198,-162 198,-162 204,-162 210,-168 210,-174 210,-174 210,-240 210,-240 210,-246 204,-252 198,-252 198,-252 36,-252 36,-252 30,-252 24,-246 24,-240 24,-240 24,-174 24,-174 24,-168 30,-162 36,-162"/>
<text text-anchor="middle" x="117" y="-236.8" font-family="Arial" font-size="14.00" fill="#000000">l2_cache_A </text>
<text text-anchor="middle" x="117" y="-221.8" font-family="Arial" font-size="14.00" fill="#000000">: L2Cache</text>
</a>
</g>
</g>
<g id="clust67" class="cluster">
<title>cluster_system_l2_cache_B</title>
<g id="a_clust67"><a xlink:title="addr_ranges=0:18446744073709551615&#10;assoc=8&#10;clk_domain=system.clk_domain&#10;clusivity=mostly_incl&#10;compressor=Null&#10;data_latency=20&#10;demand_mshr_reserve=1&#10;eventq_index=0&#10;is_read_only=false&#10;max_miss_count=0&#10;move_contractions=true&#10;mshrs=20&#10;power_model=&#10;power_state=system.l2_cache_B.power_state&#10;prefetcher=Null&#10;&#13;eplace_expansions=true&#10;&#13;eplacement_policy=system.l2_cache_B.replacement_policy&#10;&#13;esponse_latency=20&#10;sequential_access=false&#10;size=262144&#10;system=system&#10;tag_latency=20&#10;tags=system.l2_cache_B.tags&#10;tgts_per_mshr=12&#10;warmup_percentage=0&#10;write_allocator=Null&#10;write_buffers=8&#10;writeback_clean=false">
<path fill="#bab6ae" stroke="#000000" d="M527,-162C527,-162 689,-162 689,-162 695,-162 701,-168 701,-174 701,-174 701,-240 701,-240 701,-246 695,-252 689,-252 689,-252 527,-252 527,-252 521,-252 515,-246 515,-240 515,-240 515,-174 515,-174 515,-168 521,-162 527,-162"/>
<text text-anchor="middle" x="608" y="-236.8" font-family="Arial" font-size="14.00" fill="#000000">l2_cache_B </text>
<text text-anchor="middle" x="608" y="-221.8" font-family="Arial" font-size="14.00" fill="#000000">: L2Cache</text>
</a>
</g>
</g>
<g id="clust73" class="cluster">
<title>cluster_system_l2bus</title>
<g id="a_clust73"><a xlink:title="clk_domain=system.clk_domain&#10;eventq_index=0&#10;forward_latency=0&#10;frontend_latency=1&#10;header_latency=1&#10;max_outstanding_snoops=512&#10;max_routing_table_size=512&#10;point_of_coherency=false&#10;point_of_unification=true&#10;power_model=&#10;power_state=system.l2bus.power_state&#10;&#13;esponse_latency=1&#10;snoop_filter=system.l2bus.snoop_filter&#10;snoop_response_latency=1&#10;system=system&#10;use_default_range=false&#10;width=32">
<path fill="#6f798c" stroke="#000000" d="M721,-162C721,-162 957,-162 957,-162 963,-162 969,-168 969,-174 969,-174 969,-240 969,-240 969,-246 963,-252 957,-252 957,-252 721,-252 721,-252 715,-252 709,-246 709,-240 709,-240 709,-174 709,-174 709,-168 715,-162 721,-162"/>
<text text-anchor="middle" x="839" y="-236.8" font-family="Arial" font-size="14.00" fill="#000000">l2bus </text>
<text text-anchor="middle" x="839" y="-221.8" font-family="Arial" font-size="14.00" fill="#000000">: L2XBar</text>
</a>
</g>
</g>
<g id="clust76" class="cluster">
<title>cluster_system_photonic_accelnew</title>
<g id="a_clust76"><a xlink:title="accel_ctrl=1073741824:1073745920&#10;accel_data=1073745920:2147483648&#10;adc_conversion_delay=2000&#10;bit_number=8&#10;carrier_frequency=3.5&#10;clk_domain=system.clk_domain&#10;conversion_efficiency=0.85&#10;dac1_conversion_delay=2000000&#10;dac2_conversion_delay=2000000&#10;data_processing_delay=5000&#10;duration_of_event1=2&#10;duration_of_event2=2&#10;duration_of_event3=2&#10;duration_of_event4=0&#10;end_time=2&#10;errors=0.2&#10;eventq_index=0&#10;flag_enabled=true&#10;jitter=1&#10;max_reqs=64&#10;max_rsze=64&#10;&#10;onlinearities=2&#10;&#10;um_messages=16&#10;&#10;um_mzis=100&#10;&#10;umber_of_operations=100&#10;pio_latency=5000&#10;power_consumption=1.5&#10;power_model=&#10;power_state=system.photonic_accelnew.power_state&#10;&#13;esponse_time=2000&#10;&#13;esponsivity=2.5&#10;signal_loss=0.2&#10;start_time=0&#10;system=system&#10;tile_size=32&#10;total_latency=10000">
<path fill="#bab6ae" stroke="#000000" d="M230,-162C230,-162 495,-162 495,-162 501,-162 507,-168 507,-174 507,-174 507,-240 507,-240 507,-246 501,-252 495,-252 495,-252 230,-252 230,-252 224,-252 218,-246 218,-240 218,-240 218,-174 218,-174 218,-168 224,-162 230,-162"/>
<text text-anchor="middle" x="362.5" y="-236.8" font-family="Arial" font-size="14.00" fill="#000000">photonic_accelnew </text>
<text text-anchor="middle" x="362.5" y="-221.8" font-family="Arial" font-size="14.00" fill="#000000">: PhotonicAccelnew</text>
</a>
</g>
</g>
<g id="clust78" class="cluster">
<title>cluster_system_mem_ctrl</title>
<g id="a_clust78"><a xlink:title="clk_domain=system.clk_domain&#10;command_window=10000&#10;disable_sanity_check=false&#10;dram=system.mem_ctrl.dram&#10;eventq_index=0&#10;mem_sched_policy=frfcfs&#10;min_reads_per_switch=16&#10;min_writes_per_switch=16&#10;power_model=&#10;power_state=system.mem_ctrl.power_state&#10;qos_policy=Null&#10;qos_priorities=1&#10;qos_priority_escalation=false&#10;qos_q_policy=fifo&#10;qos_requestors= &#160;&#160;&#160;&#160;&#160;&#160;&#160;&#160;&#160;&#160;&#160;&#160;&#160;&#160;&#10;qos_syncro_scheduler=false&#10;qos_turnaround_policy=Null&#10;static_backend_latency=10000&#10;static_frontend_latency=10000&#10;system=system&#10;write_high_thresh_perc=85&#10;write_low_thresh_perc=50">
<path fill="#bab6ae" stroke="#000000" d="M989,-162C989,-162 1042,-162 1042,-162 1048,-162 1054,-168 1054,-174 1054,-174 1054,-240 1054,-240 1054,-246 1048,-252 1042,-252 1042,-252 989,-252 989,-252 983,-252 977,-246 977,-240 977,-240 977,-174 977,-174 977,-168 983,-162 989,-162"/>
<text text-anchor="middle" x="1015.5" y="-236.8" font-family="Arial" font-size="14.00" fill="#000000">mem_ctrl </text>
<text text-anchor="middle" x="1015.5" y="-221.8" font-family="Arial" font-size="14.00" fill="#000000">: MemCtrl</text>
</a>
</g>
</g>
<!-- system_membus_cpu_side_ports -->
<g id="node1" class="node">
<title>system_membus_cpu_side_ports</title>
<path fill="#586070" stroke="#000000" d="M926,-350C926,-350 842,-350 842,-350 836,-350 830,-344 830,-338 830,-338 830,-326 830,-326 830,-320 836,-314 842,-314 842,-314 926,-314 926,-314 932,-314 938,-320 938,-326 938,-326 938,-338 938,-338 938,-344 932,-350 926,-350"/>
<text text-anchor="middle" x="884" y="-328.3" font-family="Arial" font-size="14.00" fill="#000000">cpu_side_ports</text>
</g>
<!-- system_cpu_interrupts_int_requestor -->
<g id="node9" class="node">
<title>system_cpu_interrupts_int_requestor</title>
<path fill="#94918b" stroke="#000000" d="M1367.5,-206C1367.5,-206 1296.5,-206 1296.5,-206 1290.5,-206 1284.5,-200 1284.5,-194 1284.5,-194 1284.5,-182 1284.5,-182 1284.5,-176 1290.5,-170 1296.5,-170 1296.5,-170 1367.5,-170 1367.5,-170 1373.5,-170 1379.5,-176 1379.5,-182 1379.5,-182 1379.5,-194 1379.5,-194 1379.5,-200 1373.5,-206 1367.5,-206"/>
<text text-anchor="middle" x="1332" y="-184.3" font-family="Arial" font-size="14.00" fill="#000000">int_requestor</text>
</g>
<!-- system_membus_cpu_side_ports&#45;&gt;system_cpu_interrupts_int_requestor -->
<g id="edge4" class="edge">
<title>system_membus_cpu_side_ports&#45;&gt;system_cpu_interrupts_int_requestor</title>
<path fill="none" stroke="black" d="M930.4,-310.48C935.91,-308.68 941.52,-307.12 947,-306 965.19,-302.3 1265.46,-308.15 1281,-298 1312.66,-277.32 1325.05,-231.4 1329.59,-206.26"/>
<polygon fill="black" stroke="black" points="928.89,-307.3 920.64,-313.95 931.24,-313.9 928.89,-307.3"/>
</g>
<!-- system_l2_cache_A_mem_side -->
<g id="node19" class="node">
<title>system_l2_cache_A_mem_side</title>
<path fill="#94918b" stroke="#000000" d="M100,-206C100,-206 44,-206 44,-206 38,-206 32,-200 32,-194 32,-194 32,-182 32,-182 32,-176 38,-170 44,-170 44,-170 100,-170 100,-170 106,-170 112,-176 112,-182 112,-182 112,-194 112,-194 112,-200 106,-206 100,-206"/>
<text text-anchor="middle" x="72" y="-184.3" font-family="Arial" font-size="14.00" fill="#000000">mem_side</text>
</g>
<!-- system_membus_cpu_side_ports&#45;&gt;system_l2_cache_A_mem_side -->
<g id="edge2" class="edge">
<title>system_membus_cpu_side_ports&#45;&gt;system_l2_cache_A_mem_side</title>
<path fill="none" stroke="black" d="M819.67,-330.04C640.97,-327.15 149.7,-317.46 121,-298 89.92,-276.93 78.29,-231.16 74.15,-206.16"/>
<polygon fill="black" stroke="black" points="819.67,-333.55 829.72,-330.21 819.78,-326.55 819.67,-333.55"/>
</g>
<!-- system_l2_cache_B_mem_side -->
<g id="node21" class="node">
<title>system_l2_cache_B_mem_side</title>
<path fill="#94918b" stroke="#000000" d="M591,-206C591,-206 535,-206 535,-206 529,-206 523,-200 523,-194 523,-194 523,-182 523,-182 523,-176 529,-170 535,-170 535,-170 591,-170 591,-170 597,-170 603,-176 603,-182 603,-182 603,-194 603,-194 603,-200 597,-206 591,-206"/>
<text text-anchor="middle" x="563" y="-184.3" font-family="Arial" font-size="14.00" fill="#000000">mem_side</text>
</g>
<!-- system_membus_cpu_side_ports&#45;&gt;system_l2_cache_B_mem_side -->
<g id="edge3" class="edge">
<title>system_membus_cpu_side_ports&#45;&gt;system_l2_cache_B_mem_side</title>
<path fill="none" stroke="black" d="M819.42,-330.25C749.86,-328.23 644.85,-321.27 613,-298 582.74,-275.89 570.31,-230.99 565.6,-206.27"/>
<polygon fill="black" stroke="black" points="819.75,-333.76 829.83,-330.53 819.93,-326.77 819.75,-333.76"/>
</g>
<!-- system_l2bus_mem_side_ports -->
<g id="node23" class="node">
<title>system_l2bus_mem_side_ports</title>
<path fill="#586070" stroke="#000000" d="M823,-206C823,-206 729,-206 729,-206 723,-206 717,-200 717,-194 717,-194 717,-182 717,-182 717,-176 723,-170 729,-170 729,-170 823,-170 823,-170 829,-170 835,-176 835,-182 835,-182 835,-194 835,-194 835,-200 829,-206 823,-206"/>
<text text-anchor="middle" x="776" y="-184.3" font-family="Arial" font-size="14.00" fill="#000000">mem_side_ports</text>
</g>
<!-- system_membus_cpu_side_ports&#45;&gt;system_l2bus_mem_side_ports -->
<g id="edge1" class="edge">
<title>system_membus_cpu_side_ports&#45;&gt;system_l2bus_mem_side_ports</title>
<path fill="none" stroke="black" d="M852.68,-306.88C849.62,-304.02 846.66,-301.04 844,-298 818.28,-268.64 795.95,-228.48 784.39,-206.01"/>
<polygon fill="black" stroke="black" points="850.6,-309.71 860.42,-313.68 855.22,-304.45 850.6,-309.71"/>
</g>
<!-- system_membus_mem_side_ports -->
<g id="node2" class="node">
<title>system_membus_mem_side_ports</title>
<path fill="#586070" stroke="#000000" d="M1062,-350C1062,-350 968,-350 968,-350 962,-350 956,-344 956,-338 956,-338 956,-326 956,-326 956,-320 962,-314 968,-314 968,-314 1062,-314 1062,-314 1068,-314 1074,-320 1074,-326 1074,-326 1074,-338 1074,-338 1074,-344 1068,-350 1062,-350"/>
<text text-anchor="middle" x="1015" y="-328.3" font-family="Arial" font-size="14.00" fill="#000000">mem_side_ports</text>
</g>
<!-- system_cpu_interrupts_int_responder -->
<g id="node10" class="node">
<title>system_cpu_interrupts_int_responder</title>
<path fill="#94918b" stroke="#000000" d="M1484.5,-206C1484.5,-206 1409.5,-206 1409.5,-206 1403.5,-206 1397.5,-200 1397.5,-194 1397.5,-194 1397.5,-182 1397.5,-182 1397.5,-176 1403.5,-170 1409.5,-170 1409.5,-170 1484.5,-170 1484.5,-170 1490.5,-170 1496.5,-176 1496.5,-182 1496.5,-182 1496.5,-194 1496.5,-194 1496.5,-200 1490.5,-206 1484.5,-206"/>
<text text-anchor="middle" x="1447" y="-184.3" font-family="Arial" font-size="14.00" fill="#000000">int_responder</text>
</g>
<!-- system_membus_mem_side_ports&#45;&gt;system_cpu_interrupts_int_responder -->
<g id="edge7" class="edge">
<title>system_membus_mem_side_ports&#45;&gt;system_cpu_interrupts_int_responder</title>
<path fill="none" stroke="black" d="M1074.34,-328.85C1173.22,-324.81 1363.42,-314.94 1389,-298 1417.43,-279.17 1432.92,-241.65 1440.58,-215.94"/>
<polygon fill="black" stroke="black" points="1444.02,-216.64 1443.31,-206.07 1437.27,-214.77 1444.02,-216.64"/>
</g>
<!-- system_cpu_interrupts_pio -->
<g id="node11" class="node">
<title>system_cpu_interrupts_pio</title>
<path fill="#94918b" stroke="#000000" d="M1557,-206C1557,-206 1527,-206 1527,-206 1521,-206 1515,-200 1515,-194 1515,-194 1515,-182 1515,-182 1515,-176 1521,-170 1527,-170 1527,-170 1557,-170 1557,-170 1563,-170 1569,-176 1569,-182 1569,-182 1569,-194 1569,-194 1569,-200 1563,-206 1557,-206"/>
<text text-anchor="middle" x="1542" y="-184.3" font-family="Arial" font-size="14.00" fill="#000000">pio</text>
</g>
<!-- system_membus_mem_side_ports&#45;&gt;system_cpu_interrupts_pio -->
<g id="edge6" class="edge">
<title>system_membus_mem_side_ports&#45;&gt;system_cpu_interrupts_pio</title>
<path fill="none" stroke="black" d="M1074.04,-330.68C1197.14,-329.48 1472.58,-323.91 1506,-298 1530.81,-278.77 1538.72,-241.94 1541.13,-216.45"/>
<polygon fill="black" stroke="black" points="1544.63,-216.53 1541.86,-206.3 1537.65,-216.03 1544.63,-216.53"/>
</g>
<!-- system_mem_ctrl_port -->
<g id="node27" class="node">
<title>system_mem_ctrl_port</title>
<path fill="#94918b" stroke="#000000" d="M1030,-206C1030,-206 1000,-206 1000,-206 994,-206 988,-200 988,-194 988,-194 988,-182 988,-182 988,-176 994,-170 1000,-170 1000,-170 1030,-170 1030,-170 1036,-170 1042,-176 1042,-182 1042,-182 1042,-194 1042,-194 1042,-200 1036,-206 1030,-206"/>
<text text-anchor="middle" x="1015" y="-184.3" font-family="Arial" font-size="14.00" fill="#000000">port</text>
</g>
<!-- system_membus_mem_side_ports&#45;&gt;system_mem_ctrl_port -->
<g id="edge5" class="edge">
<title>system_membus_mem_side_ports&#45;&gt;system_mem_ctrl_port</title>
<path fill="none" stroke="black" d="M1015,-313.87C1015,-289.67 1015,-245.21 1015,-216.39"/>
<polygon fill="black" stroke="black" points="1018.5,-216.19 1015,-206.19 1011.5,-216.19 1018.5,-216.19"/>
</g>
<!-- system_cpu_icache_port -->
<g id="node3" class="node">
<title>system_cpu_icache_port</title>
<path fill="#959ead" stroke="#000000" d="M1254,-206C1254,-206 1192,-206 1192,-206 1186,-206 1180,-200 1180,-194 1180,-194 1180,-182 1180,-182 1180,-176 1186,-170 1192,-170 1192,-170 1254,-170 1254,-170 1260,-170 1266,-176 1266,-182 1266,-182 1266,-194 1266,-194 1266,-200 1260,-206 1254,-206"/>
<text text-anchor="middle" x="1223" y="-184.3" font-family="Arial" font-size="14.00" fill="#000000">icache_port</text>
</g>
<!-- system_cpu_icache_cpu_side -->
<g id="node5" class="node">
<title>system_cpu_icache_cpu_side</title>
<path fill="#94918b" stroke="#000000" d="M1429.5,-76C1429.5,-76 1382.5,-76 1382.5,-76 1376.5,-76 1370.5,-70 1370.5,-64 1370.5,-64 1370.5,-52 1370.5,-52 1370.5,-46 1376.5,-40 1382.5,-40 1382.5,-40 1429.5,-40 1429.5,-40 1435.5,-40 1441.5,-46 1441.5,-52 1441.5,-52 1441.5,-64 1441.5,-64 1441.5,-70 1435.5,-76 1429.5,-76"/>
<text text-anchor="middle" x="1406" y="-54.3" font-family="Arial" font-size="14.00" fill="#000000">cpu_side</text>
</g>
<!-- system_cpu_icache_port&#45;&gt;system_cpu_icache_cpu_side -->
<g id="edge8" class="edge">
<title>system_cpu_icache_port&#45;&gt;system_cpu_icache_cpu_side</title>
<path fill="none" stroke="black" d="M1255.84,-169.97C1261.22,-167.26 1266.75,-164.52 1272,-162 1311.1,-143.25 1327.46,-149.49 1361,-122 1373.47,-111.79 1384.13,-97.32 1391.94,-84.83"/>
<polygon fill="black" stroke="black" points="1394.99,-86.55 1397.11,-76.17 1388.98,-82.96 1394.99,-86.55"/>
</g>
<!-- system_cpu_dcache_port -->
<g id="node4" class="node">
<title>system_cpu_dcache_port</title>
<path fill="#959ead" stroke="#000000" d="M1149.5,-206C1149.5,-206 1082.5,-206 1082.5,-206 1076.5,-206 1070.5,-200 1070.5,-194 1070.5,-194 1070.5,-182 1070.5,-182 1070.5,-176 1076.5,-170 1082.5,-170 1082.5,-170 1149.5,-170 1149.5,-170 1155.5,-170 1161.5,-176 1161.5,-182 1161.5,-182 1161.5,-194 1161.5,-194 1161.5,-200 1155.5,-206 1149.5,-206"/>
<text text-anchor="middle" x="1116" y="-184.3" font-family="Arial" font-size="14.00" fill="#000000">dcache_port</text>
</g>
<!-- system_cpu_dcache_cpu_side -->
<g id="node7" class="node">
<title>system_cpu_dcache_cpu_side</title>
<path fill="#94918b" stroke="#000000" d="M1235.5,-76C1235.5,-76 1188.5,-76 1188.5,-76 1182.5,-76 1176.5,-70 1176.5,-64 1176.5,-64 1176.5,-52 1176.5,-52 1176.5,-46 1182.5,-40 1188.5,-40 1188.5,-40 1235.5,-40 1235.5,-40 1241.5,-40 1247.5,-46 1247.5,-52 1247.5,-52 1247.5,-64 1247.5,-64 1247.5,-70 1241.5,-76 1235.5,-76"/>
<text text-anchor="middle" x="1212" y="-54.3" font-family="Arial" font-size="14.00" fill="#000000">cpu_side</text>
</g>
<!-- system_cpu_dcache_port&#45;&gt;system_cpu_dcache_cpu_side -->
<g id="edge9" class="edge">
<title>system_cpu_dcache_port&#45;&gt;system_cpu_dcache_cpu_side</title>
<path fill="none" stroke="black" d="M1129.85,-169.78C1140.23,-156.78 1154.71,-138.42 1167,-122 1176.12,-109.83 1185.97,-96.11 1194.12,-84.58"/>
<polygon fill="black" stroke="black" points="1197.08,-86.45 1199.98,-76.26 1191.36,-82.42 1197.08,-86.45"/>
</g>
<!-- system_cpu_icache_mem_side -->
<g id="node6" class="node">
<title>system_cpu_icache_mem_side</title>
<path fill="#94918b" stroke="#000000" d="M1340,-76C1340,-76 1284,-76 1284,-76 1278,-76 1272,-70 1272,-64 1272,-64 1272,-52 1272,-52 1272,-46 1278,-40 1284,-40 1284,-40 1340,-40 1340,-40 1346,-40 1352,-46 1352,-52 1352,-52 1352,-64 1352,-64 1352,-70 1346,-76 1340,-76"/>
<text text-anchor="middle" x="1312" y="-54.3" font-family="Arial" font-size="14.00" fill="#000000">mem_side</text>
</g>
<!-- system_cpu_dcache_mem_side -->
<g id="node8" class="node">
<title>system_cpu_dcache_mem_side</title>
<path fill="#94918b" stroke="#000000" d="M1146,-76C1146,-76 1090,-76 1090,-76 1084,-76 1078,-70 1078,-64 1078,-64 1078,-52 1078,-52 1078,-46 1084,-40 1090,-40 1090,-40 1146,-40 1146,-40 1152,-40 1158,-46 1158,-52 1158,-52 1158,-64 1158,-64 1158,-70 1152,-76 1146,-76"/>
<text text-anchor="middle" x="1118" y="-54.3" font-family="Arial" font-size="14.00" fill="#000000">mem_side</text>
</g>
<!-- system_l1_cache_A_cpu_side -->
<g id="node12" class="node">
<title>system_l1_cache_A_cpu_side</title>
<path fill="#94918b" stroke="#000000" d="M286.5,-76C286.5,-76 239.5,-76 239.5,-76 233.5,-76 227.5,-70 227.5,-64 227.5,-64 227.5,-52 227.5,-52 227.5,-46 233.5,-40 239.5,-40 239.5,-40 286.5,-40 286.5,-40 292.5,-40 298.5,-46 298.5,-52 298.5,-52 298.5,-64 298.5,-64 298.5,-70 292.5,-76 286.5,-76"/>
<text text-anchor="middle" x="263" y="-54.3" font-family="Arial" font-size="14.00" fill="#000000">cpu_side</text>
</g>
<!-- system_l1_cache_A_mem_side -->
<g id="node13" class="node">
<title>system_l1_cache_A_mem_side</title>
<path fill="#94918b" stroke="#000000" d="M197,-76C197,-76 141,-76 141,-76 135,-76 129,-70 129,-64 129,-64 129,-52 129,-52 129,-46 135,-40 141,-40 141,-40 197,-40 197,-40 203,-40 209,-46 209,-52 209,-52 209,-64 209,-64 209,-70 203,-76 197,-76"/>
<text text-anchor="middle" x="169" y="-54.3" font-family="Arial" font-size="14.00" fill="#000000">mem_side</text>
</g>
<!-- system_l1_cache_B_cpu_side -->
<g id="node14" class="node">
<title>system_l1_cache_B_cpu_side</title>
<path fill="#94918b" stroke="#000000" d="M452.5,-76C452.5,-76 405.5,-76 405.5,-76 399.5,-76 393.5,-70 393.5,-64 393.5,-64 393.5,-52 393.5,-52 393.5,-46 399.5,-40 405.5,-40 405.5,-40 452.5,-40 452.5,-40 458.5,-40 464.5,-46 464.5,-52 464.5,-52 464.5,-64 464.5,-64 464.5,-70 458.5,-76 452.5,-76"/>
<text text-anchor="middle" x="429" y="-54.3" font-family="Arial" font-size="14.00" fill="#000000">cpu_side</text>
</g>
<!-- system_l1_cache_B_mem_side -->
<g id="node15" class="node">
<title>system_l1_cache_B_mem_side</title>
<path fill="#94918b" stroke="#000000" d="M551,-76C551,-76 495,-76 495,-76 489,-76 483,-70 483,-64 483,-64 483,-52 483,-52 483,-46 489,-40 495,-40 495,-40 551,-40 551,-40 557,-40 563,-46 563,-52 563,-52 563,-64 563,-64 563,-70 557,-76 551,-76"/>
<text text-anchor="middle" x="523" y="-54.3" font-family="Arial" font-size="14.00" fill="#000000">mem_side</text>
</g>
<!-- system_l1_cache_results_cpu_side -->
<g id="node16" class="node">
<title>system_l1_cache_results_cpu_side</title>
<path fill="#94918b" stroke="#000000" d="M772.5,-76C772.5,-76 725.5,-76 725.5,-76 719.5,-76 713.5,-70 713.5,-64 713.5,-64 713.5,-52 713.5,-52 713.5,-46 719.5,-40 725.5,-40 725.5,-40 772.5,-40 772.5,-40 778.5,-40 784.5,-46 784.5,-52 784.5,-52 784.5,-64 784.5,-64 784.5,-70 778.5,-76 772.5,-76"/>
<text text-anchor="middle" x="749" y="-54.3" font-family="Arial" font-size="14.00" fill="#000000">cpu_side</text>
</g>
<!-- system_l1_cache_results_mem_side -->
<g id="node17" class="node">
<title>system_l1_cache_results_mem_side</title>
<path fill="#94918b" stroke="#000000" d="M871,-76C871,-76 815,-76 815,-76 809,-76 803,-70 803,-64 803,-64 803,-52 803,-52 803,-46 809,-40 815,-40 815,-40 871,-40 871,-40 877,-40 883,-46 883,-52 883,-52 883,-64 883,-64 883,-70 877,-76 871,-76"/>
<text text-anchor="middle" x="843" y="-54.3" font-family="Arial" font-size="14.00" fill="#000000">mem_side</text>
</g>
<!-- system_l2_cache_A_cpu_side -->
<g id="node18" class="node">
<title>system_l2_cache_A_cpu_side</title>
<path fill="#94918b" stroke="#000000" d="M189.5,-206C189.5,-206 142.5,-206 142.5,-206 136.5,-206 130.5,-200 130.5,-194 130.5,-194 130.5,-182 130.5,-182 130.5,-176 136.5,-170 142.5,-170 142.5,-170 189.5,-170 189.5,-170 195.5,-170 201.5,-176 201.5,-182 201.5,-182 201.5,-194 201.5,-194 201.5,-200 195.5,-206 189.5,-206"/>
<text text-anchor="middle" x="166" y="-184.3" font-family="Arial" font-size="14.00" fill="#000000">cpu_side</text>
</g>
<!-- system_l2_cache_A_cpu_side&#45;&gt;system_l1_cache_A_mem_side -->
<g id="edge10" class="edge">
<title>system_l2_cache_A_cpu_side&#45;&gt;system_l1_cache_A_mem_side</title>
<path fill="none" stroke="black" d="M166.64,-159.72C167.23,-134.52 168.09,-97.84 168.59,-76.4"/>
<polygon fill="black" stroke="black" points="163.14,-159.66 166.4,-169.74 170.14,-159.82 163.14,-159.66"/>
</g>
<!-- system_l2_cache_B_cpu_side -->
<g id="node20" class="node">
<title>system_l2_cache_B_cpu_side</title>
<path fill="#94918b" stroke="#000000" d="M680.5,-206C680.5,-206 633.5,-206 633.5,-206 627.5,-206 621.5,-200 621.5,-194 621.5,-194 621.5,-182 621.5,-182 621.5,-176 627.5,-170 633.5,-170 633.5,-170 680.5,-170 680.5,-170 686.5,-170 692.5,-176 692.5,-182 692.5,-182 692.5,-194 692.5,-194 692.5,-200 686.5,-206 680.5,-206"/>
<text text-anchor="middle" x="657" y="-184.3" font-family="Arial" font-size="14.00" fill="#000000">cpu_side</text>
</g>
<!-- system_l2_cache_B_cpu_side&#45;&gt;system_l1_cache_B_mem_side -->
<g id="edge11" class="edge">
<title>system_l2_cache_B_cpu_side&#45;&gt;system_l1_cache_B_mem_side</title>
<path fill="none" stroke="black" d="M631.56,-162.7C605.17,-137.49 564.56,-98.7 541.21,-76.4"/>
<polygon fill="black" stroke="black" points="629.28,-165.36 638.93,-169.74 634.11,-160.3 629.28,-165.36"/>
</g>
<!-- system_l2bus_cpu_side_ports -->
<g id="node22" class="node">
<title>system_l2bus_cpu_side_ports</title>
<path fill="#586070" stroke="#000000" d="M949,-206C949,-206 865,-206 865,-206 859,-206 853,-200 853,-194 853,-194 853,-182 853,-182 853,-176 859,-170 865,-170 865,-170 949,-170 949,-170 955,-170 961,-176 961,-182 961,-182 961,-194 961,-194 961,-200 955,-206 949,-206"/>
<text text-anchor="middle" x="907" y="-184.3" font-family="Arial" font-size="14.00" fill="#000000">cpu_side_ports</text>
</g>
<!-- system_l2bus_cpu_side_ports&#45;&gt;system_cpu_icache_mem_side -->
<g id="edge12" class="edge">
<title>system_l2bus_cpu_side_ports&#45;&gt;system_cpu_icache_mem_side</title>
<path fill="none" stroke="black" d="M957.56,-166.55C962.73,-164.85 967.94,-163.29 973,-162 1097.78,-130.1 1147.58,-184.83 1260,-122 1278.94,-111.41 1293.82,-90.98 1302.72,-76.25"/>
<polygon fill="black" stroke="black" points="956.04,-163.37 947.73,-169.95 958.33,-169.99 956.04,-163.37"/>
</g>
<!-- system_l2bus_cpu_side_ports&#45;&gt;system_cpu_dcache_mem_side -->
<g id="edge13" class="edge">
<title>system_l2bus_cpu_side_ports&#45;&gt;system_cpu_dcache_mem_side</title>
<path fill="none" stroke="black" d="M944.18,-164.44C985.73,-139.24 1052.09,-98.98 1089.66,-76.19"/>
<polygon fill="black" stroke="black" points="942.19,-161.56 935.46,-169.74 945.82,-167.54 942.19,-161.56"/>
</g>
<!-- system_l2bus_cpu_side_ports&#45;&gt;system_l1_cache_results_mem_side -->
<g id="edge14" class="edge">
<title>system_l2bus_cpu_side_ports&#45;&gt;system_l1_cache_results_mem_side</title>
<path fill="none" stroke="black" d="M893.86,-160.72C881.25,-135.5 862.56,-98.13 851.7,-76.4"/>
<polygon fill="black" stroke="black" points="890.77,-162.36 898.37,-169.74 897.03,-159.23 890.77,-162.36"/>
</g>
<!-- system_photonic_accelnew_dma_port -->
<g id="node24" class="node">
<title>system_photonic_accelnew_dma_port</title>
<path fill="#94918b" stroke="#000000" d="M487,-206C487,-206 437,-206 437,-206 431,-206 425,-200 425,-194 425,-194 425,-182 425,-182 425,-176 431,-170 437,-170 437,-170 487,-170 487,-170 493,-170 499,-176 499,-182 499,-182 499,-194 499,-194 499,-200 493,-206 487,-206"/>
<text text-anchor="middle" x="462" y="-184.3" font-family="Arial" font-size="14.00" fill="#000000">dma_port</text>
</g>
<!-- system_photonic_accelnew_dma_port&#45;&gt;system_l1_cache_results_cpu_side -->
<g id="edge15" class="edge">
<title>system_photonic_accelnew_dma_port&#45;&gt;system_l1_cache_results_cpu_side</title>
<path fill="none" stroke="black" d="M494.81,-169.9C500.19,-167.2 505.73,-164.48 511,-162 577.31,-130.78 655.52,-97.61 703.69,-77.6"/>
<polygon fill="black" stroke="black" points="705.3,-80.72 713.2,-73.66 702.62,-74.26 705.3,-80.72"/>
</g>
<!-- system_photonic_accelnew_data1_port -->
<g id="node25" class="node">
<title>system_photonic_accelnew_data1_port</title>
<path fill="#94918b" stroke="#000000" d="M295.5,-206C295.5,-206 238.5,-206 238.5,-206 232.5,-206 226.5,-200 226.5,-194 226.5,-194 226.5,-182 226.5,-182 226.5,-176 232.5,-170 238.5,-170 238.5,-170 295.5,-170 295.5,-170 301.5,-170 307.5,-176 307.5,-182 307.5,-182 307.5,-194 307.5,-194 307.5,-200 301.5,-206 295.5,-206"/>
<text text-anchor="middle" x="267" y="-184.3" font-family="Arial" font-size="14.00" fill="#000000">data1_port</text>
</g>
<!-- system_photonic_accelnew_data1_port&#45;&gt;system_l1_cache_A_cpu_side -->
<g id="edge16" class="edge">
<title>system_photonic_accelnew_data1_port&#45;&gt;system_l1_cache_A_cpu_side</title>
<path fill="none" stroke="black" d="M266.46,-169.74C265.79,-148.36 264.65,-111.69 263.86,-86.44"/>
<polygon fill="black" stroke="black" points="267.35,-86.28 263.54,-76.4 260.36,-86.5 267.35,-86.28"/>
</g>
<!-- system_photonic_accelnew_data2_port -->
<g id="node26" class="node">
<title>system_photonic_accelnew_data2_port</title>
<path fill="#94918b" stroke="#000000" d="M394.5,-206C394.5,-206 337.5,-206 337.5,-206 331.5,-206 325.5,-200 325.5,-194 325.5,-194 325.5,-182 325.5,-182 325.5,-176 331.5,-170 337.5,-170 337.5,-170 394.5,-170 394.5,-170 400.5,-170 406.5,-176 406.5,-182 406.5,-182 406.5,-194 406.5,-194 406.5,-200 400.5,-206 394.5,-206"/>
<text text-anchor="middle" x="366" y="-184.3" font-family="Arial" font-size="14.00" fill="#000000">data2_port</text>
</g>
<!-- system_photonic_accelnew_data2_port&#45;&gt;system_l1_cache_B_cpu_side -->
<g id="edge17" class="edge">
<title>system_photonic_accelnew_data2_port&#45;&gt;system_l1_cache_B_cpu_side</title>
<path fill="none" stroke="black" d="M374.5,-169.74C385.16,-148.08 403.55,-110.71 415.99,-85.43"/>
<polygon fill="black" stroke="black" points="419.16,-86.92 420.44,-76.4 412.88,-83.82 419.16,-86.92"/>
</g>
</g>
</svg>
